<svg width="1440" height="121" viewBox="0 0 1440 121" fill="none" xmlns="http://www.w3.org/2000/svg">
<mask id="path-1-inside-1_2_379" fill="white">
<path d="M0 0H1440V121H0V0Z"/>
</mask>
<path d="M0 0H1440V121H0V0Z" fill="#474747"/>
<path d="M1440 120H0V122H1440V120Z" fill="black" mask="url(#path-1-inside-1_2_379)"/>
<path d="M52 43H46.1666C44.6195 43 43.1358 43.6146 42.0419 44.7085C40.9479 45.8025 40.3333 47.2862 40.3333 48.8333C40.3333 50.3804 40.9479 51.8642 42.0419 52.9581C43.1358 54.0521 44.6195 54.6667 46.1666 54.6667M52 43V54.6667M52 43H57.8333C58.5994 43 59.3579 43.1509 60.0656 43.444C60.7734 43.7372 61.4164 44.1669 61.9581 44.7085C62.4998 45.2502 62.9295 45.8933 63.2226 46.601C63.5158 47.3087 63.6666 48.0673 63.6666 48.8333C63.6666 49.5994 63.5158 50.3579 63.2226 51.0657C62.9295 51.7734 62.4998 52.4164 61.9581 52.9581C61.4164 53.4998 60.7734 53.9295 60.0656 54.2226C59.3579 54.5158 58.5994 54.6667 57.8333 54.6667M52 54.6667H46.1666M52 54.6667H57.8333M52 54.6667V66.3333M46.1666 54.6667C44.6195 54.6667 43.1358 55.2812 42.0419 56.3752C40.9479 57.4692 40.3333 58.9529 40.3333 60.5C40.3333 62.0471 40.9479 63.5308 42.0419 64.6248C43.1358 65.7188 44.6195 66.3333 46.1666 66.3333M57.8333 54.6667C57.0673 54.6667 56.3087 54.8175 55.601 55.1107C54.8933 55.4039 54.2502 55.8335 53.7085 56.3752C53.1668 56.9169 52.7372 57.5599 52.444 58.2677C52.1509 58.9754 52 59.734 52 60.5C52 61.266 52.1509 62.0246 52.444 62.7323C52.7372 63.4401 53.1668 64.0831 53.7085 64.6248C54.2502 65.1665 54.8933 65.5961 55.601 65.8893C56.3087 66.1824 57.0673 66.3333 57.8333 66.3333C58.5994 66.3333 59.3579 66.1824 60.0656 65.8893C60.7734 65.5961 61.4164 65.1665 61.9581 64.6248C62.4998 64.0831 62.9295 63.4401 63.2226 62.7323C63.5158 62.0246 63.6666 61.266 63.6666 60.5C63.6666 59.734 63.5158 58.9754 63.2226 58.2677C62.9295 57.5599 62.4998 56.9169 61.9581 56.3752C61.4164 55.8335 60.7734 55.4039 60.0656 55.1107C59.3579 54.8175 58.5994 54.6667 57.8333 54.6667ZM46.1666 66.3333C44.6195 66.3333 43.1358 66.9479 42.0419 68.0419C40.9479 69.1358 40.3333 70.6196 40.3333 72.1667C40.3333 73.7138 40.9479 75.1975 42.0419 76.2915C43.1358 77.3854 44.6195 78 46.1666 78C47.7137 78 49.1975 77.3854 50.2914 76.2915C51.3854 75.1975 52 73.7138 52 72.1667V66.3333M46.1666 66.3333H52" stroke="#1E1E1E" stroke-width="3.5" stroke-linecap="round" stroke-linejoin="round"/>
</svg>
